# xmcd
#
# Track frame offsets:
# 150
# 12041
# 25719
# 36975
# 64948
# 81566
# 92151
# 128167
#
# Disc length: 1938 seconds
#
#
# Revision: 0
# Processed by: cddbd v1.5.2PL0 Copyright (c) Steve Scherf et al.
# Submitted via: Nero 7, 11, 10, 0 
#
DISCID=62079008
DTITLE=Nick Gibson - Nick Gibson With The Sinsations
DYEAR=1995
DGENRE=Blues
TTITLE0=All Nite Diner
TTITLE1=Real Love
TTITLE2=Woman Like You
TTITLE3=Texass Shuffle
TTITLE4=Give It Back
TTITLE5=Hen Peckin'
TTITLE6=Leaving
TTITLE7=BBQ Chicken
EXTD=
EXTT0=All Nite Diner
EXTT1=Real Love
EXTT2=Woman Like You
EXTT3=Texass Shuffle
EXTT4=Give It Back
EXTT5=Hen Peckin'
EXTT6=Leaving
EXTT7=BBQ Chicken
PLAYORDER=
